<svg width="32" height="32" viewBox="0 0 32 32" fill="none" xmlns="http://www.w3.org/2000/svg">
  <defs>
    <linearGradient id="bg" x1="0" y1="0" x2="32" y2="32">
      <stop offset="0%" stop-color="#6366F1"/>
      <stop offset="100%" stop-color="#8B5CF6"/>
    </linearGradient>
  </defs>
  <rect width="32" height="32" rx="8" fill="url(#bg)"/>
  <!-- Film strip left -->
  <rect x="4" y="7" width="3" height="2" rx="0.5" fill="white" opacity="0.9"/>
  <rect x="4" y="11" width="3" height="2" rx="0.5" fill="white" opacity="0.9"/>
  <rect x="4" y="15" width="3" height="2" rx="0.5" fill="white" opacity="0.9"/>
  <rect x="4" y="19" width="3" height="2" rx="0.5" fill="white" opacity="0.9"/>
  <rect x="4" y="23" width="3" height="2" rx="0.5" fill="white" opacity="0.9"/>
  <!-- Film strip right -->
  <rect x="25" y="7" width="3" height="2" rx="0.5" fill="white" opacity="0.9"/>
  <rect x="25" y="11" width="3" height="2" rx="0.5" fill="white" opacity="0.9"/>
  <rect x="25" y="15" width="3" height="2" rx="0.5" fill="white" opacity="0.9"/>
  <rect x="25" y="19" width="3" height="2" rx="0.5" fill="white" opacity="0.9"/>
  <rect x="25" y="23" width="3" height="2" rx="0.5" fill="white" opacity="0.9"/>
  <!-- Play button / Video icon -->
  <path d="M13 10L23 16L13 22V10Z" fill="white"/>
</svg>
